<?xml version="1.0" encoding="UTF-8" standalone="no"?><!DOCTYPE svg PUBLIC "-//W3C//DTD SVG 1.1//EN" "http://www.w3.org/Graphics/SVG/1.1/DTD/svg11.dtd"><svg width="100%" height="100%" viewBox="0 0 2992 775" version="1.1" xmlns="http://www.w3.org/2000/svg" xmlns:xlink="http://www.w3.org/1999/xlink" xml:space="preserve" xmlns:serif="http://www.serif.com/" style="fill-rule:evenodd;clip-rule:evenodd;stroke-linecap:round;stroke-linejoin:round;stroke-miterlimit:1.5;"><rect x="4.167" y="4.167" width="2982.75" height="766" style="fill:#6b6a6a;stroke:#f3f3f3;stroke-width:8.33px;"/><path d="M360.834,210.083c-48.096,0 -54.125,0.205 -73.013,1.067c-18.846,0.858 -31.721,3.85 -42.983,8.229c-11.646,4.525 -21.521,10.579 -31.367,20.425c-9.846,9.846 -15.9,19.721 -20.425,31.367c-4.375,11.262 -7.371,24.133 -8.229,42.983c-0.862,18.892 -1.067,24.917 -1.067,73.013c0,48.091 0.205,54.125 1.067,73.012c0.858,18.846 3.854,31.721 8.229,42.983c4.525,11.646 10.579,21.521 20.425,31.363c9.846,9.846 19.721,15.9 31.367,20.429c11.262,4.375 24.137,7.371 42.983,8.229c18.888,0.863 24.917,1.067 73.013,1.067c48.091,-0 54.121,-0.204 73.008,-1.067c18.85,-0.858 31.725,-3.854 42.987,-8.229c11.646,-4.529 21.521,-10.583 31.367,-20.429c9.842,-9.842 15.9,-19.717 20.425,-31.363c4.375,-11.262 7.371,-24.137 8.229,-42.983c0.863,-18.887 1.067,-24.921 1.067,-73.012c-0,-48.092 -0.204,-54.121 -1.067,-73.013c-0.858,-18.85 -3.854,-31.721 -8.229,-42.983c-4.525,-11.646 -10.583,-21.521 -20.425,-31.367c-9.846,-9.846 -19.721,-15.9 -31.367,-20.425c-11.262,-4.379 -24.137,-7.371 -42.987,-8.229c-18.887,-0.862 -24.917,-1.067 -73.008,-1.067Zm-0,31.909c47.283,-0 52.883,0.179 71.558,1.029c17.263,0.792 26.638,3.675 32.879,6.1c8.267,3.212 14.167,7.05 20.363,13.246c6.196,6.196 10.033,12.095 13.245,20.358c2.426,6.242 5.309,15.617 6.1,32.883c0.851,18.676 1.03,24.275 1.03,71.559c-0,47.283 -0.179,52.883 -1.03,71.558c-0.791,17.263 -3.674,26.642 -6.1,32.879c-3.212,8.267 -7.049,14.167 -13.245,20.363c-6.196,6.196 -12.096,10.033 -20.363,13.246c-6.241,2.425 -15.616,5.312 -32.879,6.095c-18.675,0.855 -24.271,1.034 -71.558,1.034c-47.288,-0 -52.888,-0.179 -71.559,-1.034c-17.262,-0.783 -26.641,-3.67 -32.879,-6.095c-8.267,-3.213 -14.167,-7.05 -20.362,-13.246c-6.196,-6.196 -10.034,-12.096 -13.246,-20.363c-2.425,-6.237 -5.309,-15.616 -6.1,-32.879c-0.85,-18.675 -1.029,-24.275 -1.029,-71.558c-0,-47.284 0.179,-52.883 1.029,-71.559c0.791,-17.266 3.675,-26.641 6.1,-32.883c3.212,-8.263 7.046,-14.162 13.246,-20.358c6.195,-6.196 12.095,-10.034 20.362,-13.246c6.238,-2.425 15.617,-5.308 32.879,-6.1c18.675,-0.85 24.275,-1.029 71.559,-1.029Z" style="fill:#fff;fill-rule:nonzero;"/><path d="M360.834,446.196c-32.6,-0 -59.03,-26.429 -59.03,-59.029c0,-32.6 26.43,-59.029 59.03,-59.029c32.6,-0 59.029,26.429 59.029,59.029c-0,32.6 -26.429,59.029 -59.029,59.029Zm-0,-149.963c-50.221,0 -90.934,40.713 -90.934,90.934c0,50.221 40.713,90.933 90.934,90.933c50.22,0 90.933,-40.712 90.933,-90.933c-0,-50.221 -40.713,-90.934 -90.933,-90.934Z" style="fill:#fff;fill-rule:nonzero;"/><text x="686.015px" y="509.65px" style="font-family:'Avenir-Medium', 'Avenir';font-weight:500;font-size:345.999px;fill:#f3f3f3;">I<tspan x="799.502px 1092.22px 1301.89px 1485.96px 1746.85px 2033.33px 2262.04px 2522.92px " y="509.65px 509.65px 509.65px 509.65px 509.65px 509.65px 509.65px 509.65px ">NSTAGRAM</tspan></text></svg>