<?xml version="1.0" encoding="UTF-8" standalone="no"?><!DOCTYPE svg PUBLIC "-//W3C//DTD SVG 1.1//EN" "http://www.w3.org/Graphics/SVG/1.1/DTD/svg11.dtd"><svg width="100%" height="100%" viewBox="0 0 2554 775" version="1.1" xmlns="http://www.w3.org/2000/svg" xmlns:xlink="http://www.w3.org/1999/xlink" xml:space="preserve" xmlns:serif="http://www.serif.com/" style="fill-rule:evenodd;clip-rule:evenodd;stroke-linecap:round;stroke-linejoin:round;stroke-miterlimit:1.5;"><rect x="4.167" y="4.167" width="2544.99" height="766" style="fill:#6b6a6a;stroke:#f3f3f3;stroke-width:8.33px;"/><path d="M367.825,323.831c4.617,-5.187 8.425,-10.458 13.171,-14.929c14.584,-13.746 31.838,-20.683 51.979,-20.512c11.071,0.091 22.017,0.891 32.688,3.979c24.413,7.058 38.6,23.862 45.362,47.708c5.075,17.883 6.009,36.246 6.042,54.662c0.067,38.855 -0.112,77.705 -0.029,116.559c0.008,3.637 -1.009,4.591 -4.592,4.558c-20.012,-0.162 -40.033,-0.166 -60.046,0.009c-3.52,0.029 -4.283,-1.063 -4.27,-4.388c0.112,-36.971 0.137,-73.938 0.02,-110.908c-0.033,-9.263 -0.62,-18.521 -3.22,-27.53c-4.788,-16.591 -16.663,-25.045 -34.046,-24.129c-23.738,1.255 -36.079,13.009 -39.105,37.142c-0.724,5.767 -1.066,11.533 -1.062,17.342c0.034,35.954 -0.037,71.908 0.096,107.858c0.012,3.587 -0.883,4.646 -4.546,4.613c-20.158,-0.18 -40.325,-0.159 -60.483,-0.017c-3.229,0.025 -4.167,-0.846 -4.163,-4.117c0.092,-71.179 0.092,-142.362 -0.004,-213.546c-0.004,-3.521 1.15,-4.337 4.479,-4.312c19.146,0.141 38.296,0.158 57.438,-0.013c3.525,-0.029 4.433,1.109 4.354,4.446c-0.196,8.504 -0.063,17.017 -0.063,25.525Z" style="fill:#fefefe;fill-rule:nonzero;"/><path d="M258.159,405.181c-0,35.213 -0.058,70.429 0.083,105.646c0.017,3.912 -0.958,5.096 -5.008,5.05c-20.004,-0.221 -40.017,-0.167 -60.025,-0.029c-3.204,0.025 -4.171,-0.779 -4.167,-4.092c0.096,-71.3 0.088,-142.6 0.017,-213.9c-0.005,-2.95 0.712,-4 3.846,-3.983c20.295,0.133 40.596,0.171 60.891,-0.021c3.9,-0.042 4.434,1.475 4.425,4.817c-0.096,35.504 -0.062,71.008 -0.062,106.512Z" style="fill:#fefefe;fill-rule:nonzero;"/><path d="M263.68,223.218c0.016,22.109 -17.929,40.121 -39.984,40.13c-21.779,0.008 -39.875,-18.021 -39.945,-39.788c-0.075,-22.004 18.012,-40.125 40.024,-40.104c21.863,0.021 39.88,17.975 39.905,39.762Z" style="fill:#fefefe;fill-rule:nonzero;"/><text x="665.18px" y="508.315px" style="font-family:'Avenir-Medium', 'Avenir';font-weight:500;font-size:345.999px;fill:#f3f3f3;">L<tspan x="862.053px 975.541px 1268.26px 1509.76px 1738.47px 2012.15px 2125.64px " y="508.315px 508.315px 508.315px 508.315px 508.315px 508.315px 508.315px ">INKEDIN</tspan></text></svg>