<?xml version="1.0" encoding="UTF-8" standalone="no"?><!DOCTYPE svg PUBLIC "-//W3C//DTD SVG 1.1//EN" "http://www.w3.org/Graphics/SVG/1.1/DTD/svg11.dtd"><svg width="100%" height="100%" viewBox="0 0 2525 775" version="1.1" xmlns="http://www.w3.org/2000/svg" xmlns:xlink="http://www.w3.org/1999/xlink" xml:space="preserve" xmlns:serif="http://www.serif.com/" style="fill-rule:evenodd;clip-rule:evenodd;stroke-linecap:round;stroke-linejoin:round;stroke-miterlimit:1.5;"><rect x="4.167" y="4.167" width="2516.3" height="766" style="fill:#6b6a6a;stroke:#f3f3f3;stroke-width:8.33px;"/><path d="M320.773,564.25c164.468,0 254.406,-136.244 254.406,-254.386c0,-3.871 -0.099,-7.727 -0.249,-11.558c17.459,-12.62 32.624,-28.368 44.595,-46.291c-16.012,7.113 -33.271,11.912 -51.329,14.072c18.456,-11.064 32.623,-28.583 39.308,-49.459c-17.31,10.246 -36.415,17.693 -56.767,21.704c-16.362,-17.379 -39.557,-28.249 -65.297,-28.249c-49.383,0 -89.389,40.041 -89.389,89.4c0,7.019 0.748,13.843 2.294,20.387c-74.33,-3.736 -140.17,-39.312 -184.266,-93.41c-7.682,13.204 -12.121,28.563 -12.121,44.934c-0,31.022 15.763,58.403 39.806,74.425c-14.666,-0.454 -28.483,-4.484 -40.505,-11.189c-0.05,0.375 -0.05,0.749 -0.05,1.143c0,43.303 30.828,79.453 71.731,87.654c-7.482,2.04 -15.413,3.142 -23.544,3.142c-5.787,0 -11.373,-0.568 -16.81,-1.611c11.373,35.521 44.395,61.371 83.503,62.099c-30.578,23.978 -69.137,38.27 -111.039,38.27c-7.183,-0 -14.316,-0.409 -21.3,-1.237c39.557,25.355 86.542,40.16 137.023,40.16Z" style="fill:#fff;fill-rule:nonzero;"/><text x="795.303px" y="508.315px" style="font-family:'Avenir-Medium', 'Avenir';font-weight:500;font-size:345.999px;fill:#f3f3f3;">T<tspan x="1011.21px 1361.36px 1474.84px 1690.75px 1906.65px 2135.36px " y="508.315px 508.315px 508.315px 508.315px 508.315px 508.315px ">WITTER</tspan></text></svg>