<?xml version="1.0" encoding="UTF-8" standalone="no"?><!DOCTYPE svg PUBLIC "-//W3C//DTD SVG 1.1//EN" "http://www.w3.org/Graphics/SVG/1.1/DTD/svg11.dtd"><svg width="100%" height="100%" viewBox="0 0 2983 766" version="1.1" xmlns="http://www.w3.org/2000/svg" xmlns:xlink="http://www.w3.org/1999/xlink" xml:space="preserve" xmlns:serif="http://www.serif.com/" style="fill-rule:evenodd;clip-rule:evenodd;stroke-linejoin:round;stroke-miterlimit:2;"><rect x="0" y="0" width="2982.75" height="766" style="fill:#6b6a6a;"/><path d="M356.667,205.917c-48.096,-0 -54.125,0.204 -73.013,1.067c-18.845,0.858 -31.72,3.849 -42.983,8.229c-11.646,4.525 -21.521,10.579 -31.367,20.424c-9.845,9.846 -15.899,19.721 -20.424,31.367c-4.375,11.263 -7.371,24.134 -8.23,42.983c-0.862,18.892 -1.066,24.917 -1.066,73.013c-0,48.092 0.204,54.125 1.066,73.013c0.859,18.845 3.855,31.72 8.23,42.983c4.525,11.646 10.579,21.521 20.424,31.362c9.846,9.846 19.721,15.9 31.367,20.43c11.263,4.375 24.138,7.37 42.983,8.229c18.888,0.862 24.917,1.066 73.013,1.066c48.092,0 54.121,-0.204 73.008,-1.066c18.85,-0.859 31.725,-3.854 42.988,-8.229c11.646,-4.53 21.521,-10.584 31.366,-20.43c9.842,-9.841 15.9,-19.716 20.425,-31.362c4.375,-11.263 7.371,-24.138 8.23,-42.983c0.862,-18.888 1.066,-24.921 1.066,-73.013c0,-48.092 -0.204,-54.121 -1.066,-73.013c-0.859,-18.849 -3.855,-31.72 -8.23,-42.983c-4.525,-11.646 -10.583,-21.521 -20.425,-31.367c-9.845,-9.845 -19.72,-15.899 -31.366,-20.424c-11.263,-4.38 -24.138,-7.371 -42.988,-8.229c-18.887,-0.863 -24.916,-1.067 -73.008,-1.067Zm-0,31.908c47.283,0 52.883,0.179 71.558,1.029c17.263,0.792 26.638,3.675 32.879,6.1c8.267,3.213 14.167,7.05 20.363,13.246c6.196,6.196 10.033,12.096 13.246,20.358c2.425,6.242 5.308,15.617 6.1,32.884c0.85,18.675 1.029,24.275 1.029,71.558c-0,47.283 -0.179,52.883 -1.029,71.558c-0.792,17.263 -3.675,26.642 -6.1,32.88c-3.213,8.266 -7.05,14.166 -13.246,20.362c-6.196,6.196 -12.096,10.034 -20.363,13.246c-6.241,2.425 -15.616,5.312 -32.879,6.096c-18.675,0.854 -24.271,1.033 -71.558,1.033c-47.288,0 -52.888,-0.179 -71.558,-1.033c-17.263,-0.784 -26.642,-3.671 -32.88,-6.096c-8.266,-3.212 -14.166,-7.05 -20.362,-13.246c-6.196,-6.196 -10.033,-12.096 -13.246,-20.362c-2.425,-6.238 -5.308,-15.617 -6.1,-32.88c-0.85,-18.675 -1.029,-24.275 -1.029,-71.558c0,-47.283 0.179,-52.883 1.029,-71.558c0.792,-17.267 3.675,-26.642 6.1,-32.884c3.213,-8.262 7.046,-14.162 13.246,-20.358c6.196,-6.196 12.096,-10.033 20.362,-13.246c6.238,-2.425 15.617,-5.308 32.88,-6.1c18.675,-0.85 24.275,-1.029 71.558,-1.029Z" style="fill:#fff;fill-rule:nonzero;"/><path d="M356.667,442.029c-32.6,0 -59.029,-26.429 -59.029,-59.029c-0,-32.6 26.429,-59.029 59.029,-59.029c32.6,-0 59.029,26.429 59.029,59.029c0,32.6 -26.429,59.029 -59.029,59.029Zm-0,-149.962c-50.221,-0 -90.933,40.712 -90.933,90.933c-0,50.221 40.712,90.933 90.933,90.933c50.221,0 90.933,-40.712 90.933,-90.933c0,-50.221 -40.712,-90.933 -90.933,-90.933Z" style="fill:#fff;fill-rule:nonzero;"/><text x="681.848px" y="505.484px" style="font-family:'Avenir-Medium', 'Avenir';font-weight:500;font-size:345.999px;fill:#f3f3f3;">I<tspan x="795.336px 1088.05px 1297.73px 1481.8px 1742.68px 2029.17px 2257.87px 2518.76px " y="505.484px 505.484px 505.484px 505.484px 505.484px 505.484px 505.484px 505.484px ">NSTAGRAM</tspan></text></svg>