<?xml version="1.0" encoding="UTF-8" standalone="no"?><!DOCTYPE svg PUBLIC "-//W3C//DTD SVG 1.1//EN" "http://www.w3.org/Graphics/SVG/1.1/DTD/svg11.dtd"><svg width="100%" height="100%" viewBox="0 0 2545 766" version="1.1" xmlns="http://www.w3.org/2000/svg" xmlns:xlink="http://www.w3.org/1999/xlink" xml:space="preserve" xmlns:serif="http://www.serif.com/" style="fill-rule:evenodd;clip-rule:evenodd;stroke-linejoin:round;stroke-miterlimit:2;"><rect x="0" y="0" width="2544.99" height="766" style="fill:#6b6a6a;"/><path d="M363.659,319.664c4.616,-5.187 8.425,-10.458 13.171,-14.929c14.583,-13.746 31.837,-20.683 51.979,-20.512c11.071,0.091 22.016,0.892 32.687,3.979c24.413,7.058 38.6,23.863 45.363,47.708c5.075,17.884 6.008,36.246 6.041,54.663c0.067,38.854 -0.112,77.704 -0.029,116.558c0.009,3.638 -1.008,4.592 -4.591,4.558c-20.013,-0.162 -40.034,-0.166 -60.046,0.009c-3.521,0.029 -4.283,-1.063 -4.271,-4.388c0.112,-36.971 0.137,-73.937 0.021,-110.908c-0.033,-9.263 -0.621,-18.521 -3.221,-27.529c-4.787,-16.592 -16.663,-25.046 -34.046,-24.129c-23.737,1.254 -36.079,13.008 -39.104,37.141c-0.725,5.767 -1.067,11.534 -1.063,17.342c0.034,35.954 -0.037,71.908 0.096,107.858c0.013,3.588 -0.883,4.646 -4.546,4.613c-20.158,-0.179 -40.325,-0.159 -60.483,-0.017c-3.229,0.025 -4.167,-0.846 -4.162,-4.116c0.091,-71.18 0.091,-142.363 -0.005,-213.546c-0.004,-3.521 1.15,-4.338 4.48,-4.313c19.146,0.142 38.295,0.159 57.437,-0.012c3.525,-0.03 4.433,1.108 4.354,4.446c-0.195,8.504 -0.062,17.016 -0.062,25.524Z" style="fill:#fefefe;fill-rule:nonzero;"/><path d="M253.992,401.014c0,35.213 -0.058,70.43 0.083,105.646c0.017,3.913 -0.958,5.096 -5.008,5.05c-20.004,-0.22 -40.017,-0.166 -60.025,-0.029c-3.204,0.025 -4.171,-0.779 -4.167,-4.092c0.096,-71.3 0.088,-142.6 0.017,-213.9c-0.004,-2.95 0.713,-4 3.846,-3.983c20.296,0.133 40.596,0.171 60.892,-0.021c3.899,-0.041 4.433,1.475 4.425,4.817c-0.096,35.504 -0.063,71.008 -0.063,106.512Z" style="fill:#fefefe;fill-rule:nonzero;"/><path d="M259.513,219.052c0.016,22.108 -17.929,40.121 -39.983,40.129c-21.78,0.009 -39.875,-18.021 -39.946,-39.787c-0.075,-22.005 18.012,-40.125 40.025,-40.105c21.862,0.021 39.879,17.976 39.904,39.763Z" style="fill:#fefefe;fill-rule:nonzero;"/><text x="661.013px" y="504.148px" style="font-family:'Avenir-Medium', 'Avenir';font-weight:500;font-size:345.999px;fill:#f3f3f3;">L<tspan x="857.887px 971.374px 1264.09px 1505.6px 1734.3px 2007.99px 2121.47px " y="504.148px 504.148px 504.148px 504.148px 504.148px 504.148px 504.148px ">INKEDIN</tspan></text></svg>