<?xml version="1.0" encoding="UTF-8" standalone="no"?><!DOCTYPE svg PUBLIC "-//W3C//DTD SVG 1.1//EN" "http://www.w3.org/Graphics/SVG/1.1/DTD/svg11.dtd"><svg width="100%" height="100%" viewBox="0 0 2517 766" version="1.1" xmlns="http://www.w3.org/2000/svg" xmlns:xlink="http://www.w3.org/1999/xlink" xml:space="preserve" xmlns:serif="http://www.serif.com/" style="fill-rule:evenodd;clip-rule:evenodd;stroke-linejoin:round;stroke-miterlimit:2;"><rect x="0" y="0" width="2516.3" height="766" style="fill:#6b6a6a;"/><path d="M316.606,560.083c164.469,0 254.406,-136.244 254.406,-254.386c0,-3.871 -0.099,-7.727 -0.249,-11.558c17.459,-12.62 32.624,-28.368 44.595,-46.291c-16.012,7.114 -33.271,11.912 -51.329,14.072c18.457,-11.064 32.623,-28.583 39.308,-49.459c-17.31,10.246 -36.415,17.694 -56.767,21.704c-16.361,-17.379 -39.557,-28.248 -65.296,-28.248c-49.384,-0 -89.39,40.041 -89.39,89.399c0,7.019 0.749,13.843 2.295,20.388c-74.33,-3.737 -140.17,-39.313 -184.267,-93.411c-7.681,13.204 -12.121,28.563 -12.121,44.935c-0,31.022 15.763,58.402 39.806,74.424c-14.665,-0.454 -28.483,-4.484 -40.505,-11.188c-0.049,0.374 -0.049,0.748 -0.049,1.142c-0,43.303 30.827,79.453 71.731,87.654c-7.483,2.04 -15.414,3.142 -23.545,3.142c-5.786,0 -11.373,-0.568 -16.81,-1.611c11.373,35.522 44.396,61.371 83.503,62.099c-30.578,23.979 -69.137,38.27 -111.038,38.27c-7.184,0 -14.317,-0.409 -21.3,-1.237c39.557,25.356 86.541,40.16 137.022,40.16Z" style="fill:#fff;fill-rule:nonzero;"/><text x="791.136px" y="504.149px" style="font-family:'Avenir-Medium', 'Avenir';font-weight:500;font-size:345.999px;fill:#f3f3f3;">T<tspan x="1007.04px 1357.19px 1470.68px 1686.58px 1902.48px 2131.19px " y="504.149px 504.149px 504.149px 504.149px 504.149px 504.149px ">WITTER</tspan></text></svg>